<svg xmlns="http://www.w3.org/2000/svg" fill="none" stroke-width="1.5" viewBox="0 0 24 24" width="24" height="24" >
  <path fill="currentColor" stroke="currentColor" stroke-linecap="round" stroke-linejoin="round" d="M19.5 22a1.5 1.5 0 1 0 0-3 1.5 1.5 0 0 0 0 3Zm-10 0a1.5 1.5 0 1 0 0-3 1.5 1.5 0 0 0 0 3Z"/>
  <path stroke="currentColor" stroke-linecap="round" stroke-linejoin="round" d="M16.5 4H22l-2 11h-4.5m1-11-1 11m1-11h-5.8m4.8 11h-4m-.8-11H5l2 11h4.5m-.8-11 .8 11M5 4c-.2-.7-1-2-3-2m18 13H5.2c-1.8 0-2.7.8-2.7 2s1 2 2.7 2h14.3"/>
</svg>