<?xml version="1.0" encoding="utf-8"?>
<svg viewBox="0 0 24 24" width="24" height="24" stroke-width="1.3" fill="none" color="#000000" xmlns="http://www.w3.org/2000/svg">
  <rect width="7" height="5" rx="0.6" transform="matrix(0, -1, 1, 0, 2, 21)" stroke="#000000" stroke-width="1.3"/>
  <rect width="7" height="5" rx="0.6" transform="matrix(0, -1, 1, 0, 17, 15.5)" stroke="#000000" stroke-width="1.3"/>
  <rect width="7" height="5" rx="0.6" transform="matrix(0, -1, 1, 0, 2, 10)" stroke="#000000" stroke-width="1.3"/>
  <path d="M 12.5 6.5 L 9 6.5 C 7.895 6.5 7 7.395 7 8.5 L 7 15.5 C 7 16.605 7.895 17.5 9 17.5 L 12.5 17.5" stroke="#000000" stroke-width="1.3" transform="matrix(-1, 0, 0, -1, 19.5, 24)"/>
  <path d="M 17 12 L 12.5 12" stroke="#000000" stroke-width="1.3" transform="matrix(-1, 0, 0, -1, 29.5, 24)"/>
</svg>