<svg xmlns="http://www.w3.org/2000/svg" fill="none" stroke-width="1.5" viewBox="0 0 24 24" width="24px" height="24px">
  <path stroke="currentColor" stroke-linecap="round" stroke-linejoin="round" d="M20 12V5.7c0-.1 0-.3-.2-.4l-3.1-3.1a.6.6 0 0 0-.4-.2H4.6c-.3 0-.6.3-.6.6v18.8c0 .3.3.6.6.6H11M8 10h8M8 6h4m-4 8h3M18 17l1-1c.4-.5 1.1-.5 1.5 0v0c.5.4.5 1 0 1.5l-1 1M18 17l-3 3a1 1 0 0 0-.3.6l-.3 1.5 1.6-.2c.2 0 .4-.1.5-.3l3-3M18 17l1.5 1.6"/>
  <path stroke="currentColor" stroke-linecap="round" stroke-linejoin="round" d="M16 2v3.4c0 .3.3.6.6.6H20"/>
</svg>